<?xml version="1.0" encoding="UTF-8"?>
<svg version="1.1" xmlns="http://www.w3.org/2000/svg" width="514" height="260">
<path d="M0 0 C169.62 0 339.24 0 514 0 C514 85.8 514 171.6 514 260 C344.38 260 174.76 260 0 260 C0 174.2 0 88.4 0 0 Z " fill="#FDFDFD" transform="translate(0,0)"/>
<path d="M0 0 C37.95 0 75.9 0 115 0 C115 9.24 115 18.48 115 28 C87.94 28 60.88 28 33 28 C33 38.23 33 48.46 33 59 C52.14 59 71.28 59 91 59 C91 68.24 91 77.48 91 87 C71.86 87 52.72 87 33 87 C33 99.87 33 112.74 33 126 C60.72 126 88.44 126 117 126 C117 134.91 117 143.82 117 153 C78.39 153 39.78 153 0 153 C0 102.51 0 52.02 0 0 Z " fill="#040404" transform="translate(60,25)"/>
<path d="M0 0 C40.59 0 81.18 0 123 0 C123 9.24 123 18.48 123 28 C108.15 28 93.3 28 78 28 C78 69.25 78 110.5 78 153 C67.11 153 56.22 153 45 153 C45 111.75 45 70.5 45 28 C30.15 28 15.3 28 0 28 C0 18.76 0 9.52 0 0 Z " fill="#040404" transform="translate(190,25)"/>
<path d="M0 0 C10.89 0 21.78 0 33 0 C33 50.49 33 100.98 33 153 C22.11 153 11.22 153 0 153 C0 102.51 0 52.02 0 0 Z " fill="#090909" transform="translate(329,25)"/>
<path d="M0 0 C30.36 0 60.72 0 92 0 C90 12 90 12 88 16 C58.96 16 29.92 16 0 16 C0 10.72 0 5.44 0 0 Z " fill="#4576B2" transform="translate(379,25)"/>
<path d="M0 0 C27.39 0 54.78 0 83 0 C83 8 83 8 80 15 C53.6 15 27.2 15 0 15 C0 10.05 0 5.1 0 0 Z " fill="#4274B1" transform="translate(379,53)"/>
<path d="M0 0 C25.41 0 50.82 0 77 0 C77 0.99 77 1.98 77 3 C76.34 3 75.68 3 75 3 C74.814375 4.546875 74.814375 4.546875 74.625 6.125 C74 10 74 10 72 16 C48.24 16 24.48 16 0 16 C0 10.72 0 5.44 0 0 Z " fill="#4979B4" transform="translate(378,80)"/>
<path d="M0 0 C22.11 0 44.22 0 67 0 C66 8 66 8 64 15 C42.88 15 21.76 15 0 15 C0 10.05 0 5.1 0 0 Z " fill="#4273B1" transform="translate(379,108)"/>
<path d="M0 0 C19.8 0 39.6 0 60 0 C59 8 59 8 56 16 C37.52 16 19.04 16 0 16 C0 10.72 0 5.44 0 0 Z " fill="#4A7AB5" transform="translate(378,135)"/>
<path d="M0 0 C16.83 0 33.66 0 51 0 C50 6 50 6 47 15 C31.49 15 15.98 15 0 15 C0 10.05 0 5.1 0 0 Z " fill="#4274B1" transform="translate(379,163)"/>
<path d="M0 0 C3 1.4375 3 1.4375 5 4 C5.71728811 7.15136417 5.68499916 9.84451205 5 13 C2.9973443 16.06656654 1.64863713 17.60498001 -1.97265625 18.47265625 C-5.59292912 18.73656399 -7.63783776 18.28067573 -10.5 16.0625 C-12.52355333 11.93107862 -12.80919392 8.51799941 -12 4 C-9.22767237 -0.73605971 -5.07715518 -0.9551084 0 0 Z " fill="#111111" transform="translate(160,203)"/>
<path d="M0 0 C4.95 0 9.9 0 15 0 C15 0.99 15 1.98 15 3 C11.37 3 7.74 3 4 3 C4 5.31 4 7.62 4 10 C7.3 10 10.6 10 14 10 C14 11.32 14 12.64 14 14 C10.7 14 7.4 14 4 14 C4 16.64 4 19.28 4 22 C7.63 22 11.26 22 15 22 C15 22.99 15 23.98 15 25 C10.05 25 5.1 25 0 25 C0 16.75 0 8.5 0 0 Z " fill="#4D4D4D" transform="translate(60,196)"/>
<path d="M0 0 C1.32 0 2.64 0 4 0 C4 3.3 4 6.6 4 10 C4.66 9.67 5.32 9.34 6 9 C9.4709951 8.62271792 11.30016217 8.49706994 14.1796875 10.56640625 C16.67335555 13.90021568 16.40231039 16.13761941 16.25 20.25 C16.21390625 21.51328125 16.1778125 22.7765625 16.140625 24.078125 C16.07101562 25.52445313 16.07101562 25.52445313 16 27 C14.68 27 13.36 27 12 27 C11.67 22.38 11.34 17.76 11 13 C6.36980013 13.4452998 6.36980013 13.4452998 5 15 C4.76572222 17.01594582 4.58663876 19.038474 4.4375 21.0625 C4.35371094 22.16722656 4.26992188 23.27195313 4.18359375 24.41015625 C4.12300781 25.26480469 4.06242187 26.11945313 4 27 C2.68 27 1.36 27 0 27 C0 18.09 0 9.18 0 0 Z " fill="#4F4F4F" transform="translate(300,194)"/>
<path d="M0 0 C3.9375 0.6875 3.9375 0.6875 6.4375 2.875 C7.9375 5.6875 7.9375 5.6875 7.9375 10.6875 C3.6475 10.6875 -0.6425 10.6875 -5.0625 10.6875 C-2.79550478 15.67862846 -2.79550478 15.67862846 -0.01953125 16.39453125 C0.68816406 16.42933594 1.39585937 16.46414062 2.125 16.5 C3.383125 16.561875 4.64125 16.62375 5.9375 16.6875 C5.9375 17.3475 5.9375 18.0075 5.9375 18.6875 C-3.20416085 19.31555304 -3.20416085 19.31555304 -6.625 16.8125 C-9.05849957 13.21515282 -9.5677939 11.06671382 -9.0625 6.6875 C-6.63969519 2.59901688 -4.80354484 0.3142506 0 0 Z " fill="#454545" transform="translate(189.0625,202.3125)"/>
<path d="M0 0 C3.9375 0.6875 3.9375 0.6875 6.4375 2.875 C7.9375 5.6875 7.9375 5.6875 7.9375 10.6875 C3.6475 10.6875 -0.6425 10.6875 -5.0625 10.6875 C-2.79550478 15.67862846 -2.79550478 15.67862846 -0.01953125 16.39453125 C0.68816406 16.42933594 1.39585938 16.46414062 2.125 16.5 C3.383125 16.561875 4.64125 16.62375 5.9375 16.6875 C5.9375 17.3475 5.9375 18.0075 5.9375 18.6875 C-3.20416085 19.31555304 -3.20416085 19.31555304 -6.625 16.8125 C-9.05849957 13.21515282 -9.5677939 11.06671382 -9.0625 6.6875 C-6.63969519 2.59901688 -4.80354484 0.3142506 0 0 Z " fill="#333333" transform="translate(95.0625,202.3125)"/>
<path d="M0 0 C1.90625 0.41796875 1.90625 0.41796875 4.40625 2.04296875 C5.90625 4.41796875 5.90625 4.41796875 5.90625 10.41796875 C1.61625 10.41796875 -2.67375 10.41796875 -7.09375 10.41796875 C-4.82675478 15.40909721 -4.82675478 15.40909721 -2.05078125 16.125 C-1.34308594 16.15980469 -0.63539063 16.19460937 0.09375 16.23046875 C1.351875 16.29234375 2.61 16.35421875 3.90625 16.41796875 C3.90625 17.07796875 3.90625 17.73796875 3.90625 18.41796875 C-5.08077969 19.18975565 -5.08077969 19.18975565 -8.71875 16.41796875 C-10.48715379 12.5596332 -10.900743 9.58743256 -10.09375 5.41796875 C-7.66517183 0.56081242 -5.16221423 -0.35634688 0 0 Z " fill="#323232" transform="translate(330.09375,202.58203125)"/>
<path d="M0 0 C0.99 0 1.98 0 3 0 C3.33 2.97 3.66 5.94 4 9 C4.33 8.67 4.66 8.34 5 8 C11.23490601 7.53815511 11.23490601 7.53815511 13.71484375 9.03515625 C15.70058694 12.07111012 15.31480828 15.19141872 15.1875 18.6875 C15.17396484 19.38939453 15.16042969 20.09128906 15.14648438 20.81445312 C15.11120182 22.54329829 15.05739583 24.27174765 15 26 C14.01 26 13.02 26 12 26 C11.67 21.05 11.34 16.1 11 11 C8.69 11.66 6.38 12.32 4 13 C3.67 17.29 3.34 21.58 3 26 C2.01 26 1.02 26 0 26 C0 17.42 0 8.84 0 0 Z " fill="#141414" transform="translate(218,195)"/>
<path d="M0 0 C0.99 0 1.98 0 3 0 C3.33 4.62 3.66 9.24 4 14 C4.7425 13.01 5.485 12.02 6.25 11 C7.515625 9.3125 7.515625 9.3125 9 8 C10.32 8 11.64 8 13 8 C11.62594577 10.95950142 9.98223068 13.41495396 8 16 C8.433125 16.55429688 8.86625 17.10859375 9.3125 17.6796875 C10.1478125 18.76636719 10.1478125 18.76636719 11 19.875 C11.556875 20.59429687 12.11375 21.31359375 12.6875 22.0546875 C14 24 14 24 14 26 C12.68 26 11.36 26 10 26 C8.55078125 24.46875 8.55078125 24.46875 7.3125 22.5 C6.55800215 21.32270304 5.79118893 20.15295933 5 19 C4.67 19 4.34 19 4 19 C3.67 21.31 3.34 23.62 3 26 C2.01 26 1.02 26 0 26 C0 17.42 0 8.84 0 0 Z " fill="#212121" transform="translate(107,195)"/>
<path d="M0 0 C0.99 0 1.98 0 3 0 C3 0.66 3 1.32 3 2 C3.99 1.34 4.98 0.68 6 0 C9.5 -0.375 9.5 -0.375 13 0 C15.644944 2.43310638 15.9864583 3.84038848 16.29296875 7.453125 C16.25816406 8.70609375 16.22335937 9.9590625 16.1875 11.25 C16.16042969 12.51328125 16.13335937 13.7765625 16.10546875 15.078125 C16.07066406 16.04234375 16.03585937 17.0065625 16 18 C14.68 18 13.36 18 12 18 C11.67 13.38 11.34 8.76 11 4 C9.35 3.67 7.7 3.34 6 3 C4.05909174 4.94090826 4.60080565 8.47293902 4.4375 11.0625 C4.35371094 12.35285156 4.26992188 13.64320313 4.18359375 14.97265625 C4.12300781 15.97167969 4.06242187 16.97070312 4 18 C2.68 18 1.36 18 0 18 C0 12.06 0 6.12 0 0 Z " fill="#292929" transform="translate(372,203)"/>
<path d="M0 0 C0.99 0 1.98 0 3 0 C3.06058594 0.92683594 3.12117188 1.85367188 3.18359375 2.80859375 C3.26738281 4.00613281 3.35117187 5.20367187 3.4375 6.4375 C3.51871094 7.63246094 3.59992188 8.82742187 3.68359375 10.05859375 C3.67656114 12.88570244 3.67656114 12.88570244 5 14 C7.5 14.16666667 7.5 14.16666667 10 14 C11.87824891 12.12175109 11.39102397 8.96064724 11.5625 6.4375 C11.64628906 5.23996094 11.73007812 4.04242188 11.81640625 2.80859375 C11.87699219 1.88175781 11.93757813 0.95492187 12 0 C12.99 0 13.98 0 15 0 C15 5.94 15 11.88 15 18 C14.01 18 13.02 18 12 18 C12 17.34 12 16.68 12 16 C11.01 16.66 10.02 17.32 9 18 C6 18.375 6 18.375 3 18 C0.38430328 15.54892755 0.01316893 14.15521782 -0.29296875 10.546875 C-0.25816406 9.29390625 -0.22335937 8.0409375 -0.1875 6.75 C-0.16042969 5.48671875 -0.13335937 4.2234375 -0.10546875 2.921875 C-0.07066406 1.95765625 -0.03585937 0.9934375 0 0 Z " fill="#1F1F1F" transform="translate(442,203)"/>
<path d="M0 0 C0.66 0 1.32 0 2 0 C2 0.66 2 1.32 2 2 C2.99 1.34 3.98 0.68 5 0 C11.10456062 -0.54505006 11.10456062 -0.54505006 13.70703125 1.0390625 C15.70546676 4.0699224 15.31485327 7.19018327 15.1875 10.6875 C15.17396484 11.38939453 15.16042969 12.09128906 15.14648438 12.81445312 C15.11120182 14.54329829 15.05739583 16.27174765 15 18 C14.01 18 13.02 18 12 18 C11.67 13.05 11.34 8.1 11 3 C8.69 3.66 6.38 4.32 4 5 C3.67 9.29 3.34 13.58 3 18 C2.01 18 1.02 18 0 18 C0 12.06 0 6.12 0 0 Z " fill="#161616" transform="translate(239,203)"/>
<path d="M0 0 C2.50907308 2.24951379 2.95656309 3.65250472 3.375 7 C2.95656309 10.34749528 2.50907308 11.75048621 0 14 C-2.5 14.5 -2.5 14.5 -5 14 C-7.77334669 11.60918389 -7.98943126 10.100403 -8.375 6.4375 C-8 3 -8 3 -6.8125 1.0625 C-4.31219126 -0.40319823 -2.84869344 -0.49852135 0 0 Z " fill="#ECECEC" transform="translate(159,205)"/>
<path d="M0 0 C1.32 0 2.64 0 4 0 C4 1.32 4 2.64 4 4 C5.32 4 6.64 4 8 4 C8 4.99 8 5.98 8 7 C6.68 7 5.36 7 4 7 C4.33 10.96 4.66 14.92 5 19 C5.99 19.33 6.98 19.66 8 20 C8 20.66 8 21.32 8 22 C5.125 22.1875 5.125 22.1875 2 22 C-0.35119399 18.47320901 -0.21443452 16.97120515 -0.125 12.8125 C-0.10695313 11.72582031 -0.08890625 10.63914063 -0.0703125 9.51953125 C-0.04710937 8.68808594 -0.02390625 7.85664063 0 7 C-0.99 7 -1.98 7 -3 7 C-3 6.01 -3 5.02 -3 4 C-2.01 4 -1.02 4 0 4 C0 2.68 0 1.36 0 0 Z " fill="#3D3D3D" transform="translate(430,199)"/>
<path d="M0 0 C1.32 0 2.64 0 4 0 C4 1.32 4 2.64 4 4 C5.32 4 6.64 4 8 4 C8 4.99 8 5.98 8 7 C6.68 7 5.36 7 4 7 C4.33 10.96 4.66 14.92 5 19 C5.99 19.33 6.98 19.66 8 20 C8 20.66 8 21.32 8 22 C5.125 22.1875 5.125 22.1875 2 22 C-0.35119399 18.47320901 -0.21443452 16.97120515 -0.125 12.8125 C-0.10695312 11.72582031 -0.08890625 10.63914063 -0.0703125 9.51953125 C-0.04710937 8.68808594 -0.02390625 7.85664063 0 7 C-0.99 7 -1.98 7 -3 7 C-3 6.01 -3 5.02 -3 4 C-2.01 4 -1.02 4 0 4 C0 2.68 0 1.36 0 0 Z " fill="#2F2F2F" transform="translate(170,199)"/>
<path d="M0 0 C0.99 0 1.98 0 3 0 C3 1.32 3 2.64 3 4 C4.65 4 6.3 4 8 4 C8 4.99 8 5.98 8 7 C6.68 7 5.36 7 4 7 C4.33 10.96 4.66 14.92 5 19 C5.99 19.33 6.98 19.66 8 20 C8 20.66 8 21.32 8 22 C5.125 22.125 5.125 22.125 2 22 C0 20 0 20 -0.1953125 16.9609375 C-0.16050781 15.18589844 -0.16050781 15.18589844 -0.125 13.375 C-0.10695313 12.18648437 -0.08890625 10.99796875 -0.0703125 9.7734375 C-0.04710937 8.85820312 -0.02390625 7.94296875 0 7 C-0.99 7 -1.98 7 -3 7 C-3 6.01 -3 5.02 -3 4 C-2.01 4 -1.02 4 0 4 C0 2.68 0 1.36 0 0 Z " fill="#121212" transform="translate(463,199)"/>
<path d="M0 0 C1.8871875 0.061875 1.8871875 0.061875 3.8125 0.125 C3.8125 1.115 3.8125 2.105 3.8125 3.125 C1.8325 3.125 -0.1475 3.125 -2.1875 3.125 C-2.06572312 5.03966367 -2.06572312 5.03966367 -1.1875 7.125 C0.05 7.8365625 0.05 7.8365625 1.3125 8.5625 C3.8125 10.125 3.8125 10.125 4.8125 12.625 C4.8125 15.125 4.8125 15.125 3.60546875 16.76953125 C1.29605649 18.51542679 -0.01512993 18.43684218 -2.875 18.3125 C-3.68324219 18.28542969 -4.49148438 18.25835937 -5.32421875 18.23046875 C-5.93910156 18.19566406 -6.55398438 18.16085938 -7.1875 18.125 C-7.1875 17.135 -7.1875 16.145 -7.1875 15.125 C-4.8775 15.125 -2.5675 15.125 -0.1875 15.125 C0.1425 13.805 0.4725 12.485 0.8125 11.125 C-0.13625 10.83625 -1.085 10.5475 -2.0625 10.25 C-5.1875 9.125 -5.1875 9.125 -7.1875 7.125 C-7.5 4.625 -7.5 4.625 -7.1875 2.125 C-4.09861478 0.06574319 -3.47814073 -0.1140374 0 0 Z " fill="#252525" transform="translate(399.1875,202.875)"/>
<path d="M0 0 C1.8871875 0.061875 1.8871875 0.061875 3.8125 0.125 C3.8125 1.115 3.8125 2.105 3.8125 3.125 C1.5025 2.795 -0.8075 2.465 -3.1875 2.125 C-3.1875 3.775 -3.1875 5.425 -3.1875 7.125 C-1.764375 7.558125 -1.764375 7.558125 -0.3125 8 C2.8125 9.125 2.8125 9.125 4.8125 11.125 C4.48278521 14.42214793 4.1898161 15.7476839 1.8125 18.125 C-0.3515625 18.3203125 -0.3515625 18.3203125 -2.8125 18.25 C-3.62976563 18.23195312 -4.44703125 18.21390625 -5.2890625 18.1953125 C-5.91554688 18.17210937 -6.54203125 18.14890625 -7.1875 18.125 C-7.1875 17.135 -7.1875 16.145 -7.1875 15.125 C-4.8775 15.125 -2.5675 15.125 -0.1875 15.125 C0.1425 13.805 0.4725 12.485 0.8125 11.125 C-0.13625 10.83625 -1.085 10.5475 -2.0625 10.25 C-5.1875 9.125 -5.1875 9.125 -7.1875 7.125 C-7.5 4.625 -7.5 4.625 -7.1875 2.125 C-4.09861478 0.06574319 -3.47814073 -0.1140374 0 0 Z " fill="#272727" transform="translate(346.1875,202.875)"/>
<path d="M0 0 C2.01822917 0.06510417 4.03645833 0.13020833 6.0546875 0.1953125 C6.0546875 1.1853125 6.0546875 2.1753125 6.0546875 3.1953125 C4.0746875 3.1953125 2.0946875 3.1953125 0.0546875 3.1953125 C0.0546875 4.1853125 0.0546875 5.1753125 0.0546875 6.1953125 C3.5196875 8.1753125 3.5196875 8.1753125 7.0546875 10.1953125 C6.79907427 12.5384338 6.46197978 14.87374653 6.0546875 17.1953125 C3.64923112 18.39804069 2.10471797 18.29602722 -0.5703125 18.2578125 C-1.79621094 18.24427734 -1.79621094 18.24427734 -3.046875 18.23046875 C-3.67335938 18.21886719 -4.29984375 18.20726562 -4.9453125 18.1953125 C-4.9453125 17.2053125 -4.9453125 16.2153125 -4.9453125 15.1953125 C-1.9753125 15.1953125 0.9946875 15.1953125 4.0546875 15.1953125 C2.91984826 11.79079479 2.50190813 11.5947561 -0.5078125 10.0078125 C-1.6421875 9.4096875 -2.7765625 8.8115625 -3.9453125 8.1953125 C-4.0703125 5.3203125 -4.0703125 5.3203125 -3.9453125 2.1953125 C-1.9453125 0.1953125 -1.9453125 0.1953125 0 0 Z " fill="#1F1F1F" transform="translate(271.9453125,202.8046875)"/>
<path d="M0 0 C3.3 0 6.6 0 10 0 C10.05391993 1.79133978 10.09275571 3.58313899 10.125 5.375 C10.14820313 6.37273437 10.17140625 7.37046875 10.1953125 8.3984375 C10 11 10 11 8 13 C5.375 12.625 5.375 12.625 3 12 C2.4465236 9.92446352 2 8.15634036 2 6 C1.34 6 0.68 6 0 6 C0 4.02 0 2.04 0 0 Z " fill="#606060" transform="translate(347,65)"/>
<path d="M0 0 C0.99 0 1.98 0 3 0 C3 1.32 3 2.64 3 4 C4.65 4 6.3 4 8 4 C8 4.66 8 5.32 8 6 C6.35 6 4.7 6 3 6 C3.33 10.62 3.66 15.24 4 20 C5.32 20 6.64 20 8 20 C8 20.66 8 21.32 8 22 C5.125 22.125 5.125 22.125 2 22 C0 20 0 20 -0.1953125 16.9609375 C-0.16050781 15.18589844 -0.16050781 15.18589844 -0.125 13.375 C-0.10695313 12.18648437 -0.08890625 10.99796875 -0.0703125 9.7734375 C-0.04710938 8.85820312 -0.02390625 7.94296875 0 7 C-0.99 7 -1.98 7 -3 7 C-3 6.01 -3 5.02 -3 4 C-2.01 4 -1.02 4 0 4 C0 2.68 0 1.36 0 0 Z " fill="#1C1C1C" transform="translate(125,199)"/>
<path d="M0 0 C0 0.66 0 1.32 0 2 C-1.093125 2.103125 -2.18625 2.20625 -3.3125 2.3125 C-6.83108458 2.76359783 -6.83108458 2.76359783 -9 4.125 C-10.6448094 7.20901762 -9.77769676 9.70974448 -9 13 C-6.23776722 15.76223278 -3.79293383 15.57856291 0 16 C0 16.66 0 17.32 0 18 C-1.60332791 18.08121924 -3.20784026 18.13929134 -4.8125 18.1875 C-6.15248047 18.23970703 -6.15248047 18.23970703 -7.51953125 18.29296875 C-10 18 -10 18 -11.76171875 16.67578125 C-14.4558782 13.02974212 -14.45192018 9.36856177 -14 5 C-10.22143592 -0.7287907 -6.28604791 -0.61627921 0 0 Z " fill="#141414" transform="translate(296,203)"/>
<path d="M0 0 C-0.33 0.99 -0.66 1.98 -1 3 C-2.134375 3.12375 -3.26875 3.2475 -4.4375 3.375 C-6.2009375 3.684375 -6.2009375 3.684375 -8 4 C-9.38550197 6.77100394 -9.1877467 8.9334706 -9 12 C-8.01 13.485 -8.01 13.485 -7 15 C-3.41642759 15.25015873 -3.41642759 15.25015873 0 15 C0 15.99 0 16.98 0 18 C-7.87155963 18.60550459 -7.87155963 18.60550459 -11.5625 16.625 C-13.81981342 12.5029494 -13.72358826 8.58526458 -13 4 C-10.11430253 -1.26953452 -5.34828833 -0.41140679 0 0 Z " fill="#232323" transform="translate(213,203)"/>
<path d="M0 0 C0.33 0 0.66 0 1 0 C1 2.97 1 5.94 1 9 C4.3 9 7.6 9 11 9 C11 9.66 11 10.32 11 11 C8.03 11 5.06 11 2 11 C2 13.97 2 16.94 2 20 C5.63 20 9.26 20 13 20 C13 20.99 13 21.98 13 23 C8.71 23 4.42 23 0 23 C0 15.41 0 7.82 0 0 Z " fill="#181818" transform="translate(62,198)"/>
<path d="M0 0 C0.99 0 1.98 0 3 0 C3 1.32 3 2.64 3 4 C4.65 4 6.3 4 8 4 C8 4.66 8 5.32 8 6 C6.35 6 4.7 6 3 6 C3.33 10.29 3.66 14.58 4 19 C4.99 19.33 5.98 19.66 7 20 C7 20.66 7 21.32 7 22 C4.625 22.125 4.625 22.125 2 22 C0 20 0 20 -0.1953125 16.7421875 C-0.17210937 15.46601563 -0.14890625 14.18984375 -0.125 12.875 C-0.10695313 11.59367188 -0.08890625 10.31234375 -0.0703125 8.9921875 C-0.04710937 8.00476563 -0.02390625 7.01734375 0 6 C-0.99 6 -1.98 6 -3 6 C-3 5.34 -3 4.68 -3 4 C-2.01 4 -1.02 4 0 4 C0 2.68 0 1.36 0 0 Z " fill="#1C1C1C" transform="translate(409,199)"/>
<path d="M0 0 C0.66 0 1.32 0 2 0 C2.33 2.31 2.66 4.62 3 7 C-1.29 7 -5.58 7 -10 7 C-7.73300478 11.99112846 -7.73300478 11.99112846 -4.95703125 12.70703125 C-4.24933594 12.74183594 -3.54164062 12.77664062 -2.8125 12.8125 C-1.554375 12.874375 -0.29625 12.93625 1 13 C1 13.66 1 14.32 1 15 C-0.60379341 15.05416188 -2.20811406 15.09286638 -3.8125 15.125 C-4.70582031 15.14820313 -5.59914063 15.17140625 -6.51953125 15.1953125 C-9 15 -9 15 -12 13 C-12.29296875 10.3984375 -12.29296875 10.3984375 -12.1875 7.375 C-12.16042969 6.37210938 -12.13335937 5.36921875 -12.10546875 4.3359375 C-12.07066406 3.56507813 -12.03585938 2.79421875 -12 2 C-11.67 2.99 -11.34 3.98 -11 5 C-7.7 4.67 -4.4 4.34 -1 4 C-0.67 2.68 -0.34 1.36 0 0 Z " fill="#292929" transform="translate(100,206)"/>
<path d="M0 0 C0.99 0 1.98 0 3 0 C3 8.58 3 17.16 3 26 C2.01 26 1.02 26 0 26 C0 17.42 0 8.84 0 0 Z " fill="#131313" transform="translate(79,195)"/>
<path d="M0 0 C0.99 0 1.98 0 3 0 C3 8.25 3 16.5 3 25 C2.01 25 1.02 25 0 25 C0 16.75 0 8.5 0 0 Z " fill="#0E0E0E" transform="translate(363,196)"/>
<path d="M0 0 C1.32 0.33 2.64 0.66 4 1 C6.68149993 0.61432869 6.68149993 0.61432869 9 0 C9 0.99 9 1.98 9 3 C7.35 3.66 5.7 4.32 4 5 C3.67 9.29 3.34 13.58 3 18 C2.01 18 1.02 18 0 18 C0 12.06 0 6.12 0 0 Z " fill="#0C0C0C" transform="translate(137,203)"/>
<path d="M0 0 C1.32 0 2.64 0 4 0 C4 5.94 4 11.88 4 18 C2.68 18 1.36 18 0 18 C0 12.06 0 6.12 0 0 Z " fill="#2D2D2D" transform="translate(259,203)"/>
<path d="M0 0 C4.42391304 -0.35869565 4.42391304 -0.35869565 6.65625 1.03125 C8.72035873 4.0554093 8.3157224 7.16631554 8.1875 10.6875 C8.17396484 11.38939453 8.16042969 12.09128906 8.14648438 12.81445312 C8.11120182 14.54329829 8.05739583 16.27174765 8 18 C7.01 18 6.02 18 5 18 C4.90912109 16.62714844 4.90912109 16.62714844 4.81640625 15.2265625 C4.73261719 14.03804687 4.64882812 12.84953125 4.5625 11.625 C4.48128906 10.44164062 4.40007812 9.25828125 4.31640625 8.0390625 C4.18915064 5.08481099 4.18915064 5.08481099 3 3 C2.01 2.67 1.02 2.34 0 2 C0 1.34 0 0.68 0 0 Z " fill="#0A0A0A" transform="translate(225,203)"/>
<path d="M0 0 C2.54685809 0.0785782 3.81954973 0.17584047 6.0625 1.4375 C7.0625 3.3125 7.0625 3.3125 7.0625 9.3125 C3.1025 9.3125 -0.8575 9.3125 -4.9375 9.3125 C-4.9375 8.9825 -4.9375 8.6525 -4.9375 8.3125 C-1.9675 8.3125 1.0025 8.3125 4.0625 8.3125 C3.4025 6.6625 2.7425 5.0125 2.0625 3.3125 C-0.31179296 3.06180087 -0.31179296 3.06180087 -2.9375 3.3125 C-4.62548827 4.75000191 -4.62548827 4.75000191 -5.9375 6.3125 C-6.5975 6.3125 -7.2575 6.3125 -7.9375 6.3125 C-5.88699937 1.91857008 -5.1505287 0.40877212 0 0 Z " fill="#131313" transform="translate(188.9375,202.6875)"/>
<path d="M0 0 C0.66 0 1.32 0 2 0 C2.33 8.58 2.66 17.16 3 26 C2.01 26 1.02 26 0 26 C0 17.42 0 8.84 0 0 Z " fill="#0C0C0C" transform="translate(107,195)"/>
<path d="M0 0 C0.33 0.66 0.66 1.32 1 2 C1.99 2 2.98 2 4 2 C4 5.96 4 9.92 4 14 C4.66 14 5.32 14 6 14 C6 10.04 6 6.08 6 2 C7.65 2 9.3 2 11 2 C9.68 2.33 8.36 2.66 7 3 C7.33 6.96 7.66 10.92 8 15 C8.99 15.33 9.98 15.66 11 16 C11 16.66 11 17.32 11 18 C8.125 18.125 8.125 18.125 5 18 C3 16 3 16 2.8046875 12.9609375 C2.83949219 11.18589844 2.83949219 11.18589844 2.875 9.375 C2.89304687 8.18648437 2.91109375 6.99796875 2.9296875 5.7734375 C2.95289063 4.85820312 2.97609375 3.94296875 3 3 C2.01 3 1.02 3 0 3 C0 2.01 0 1.02 0 0 Z " fill="#555555" transform="translate(460,203)"/>
<path d="M0 0 C0.99 0 1.98 0 3 0 C3 5.94 3 11.88 3 18 C2.01 18 1.02 18 0 18 C0 12.06 0 6.12 0 0 Z " fill="#171717" transform="translate(421,203)"/>
<path d="M0 0 C0.66 0 1.32 0 2 0 C2.93855755 8.82244095 2.93855755 17.17755905 2 26 C1.34 26 0.68 26 0 26 C0 17.42 0 8.84 0 0 Z " fill="#030303" transform="translate(301,195)"/>
<path d="M0 0 C0.66 0 1.32 0 2 0 C2 0.99 2 1.98 2 3 C2.66 3 3.32 3 4 3 C3.67 7.95 3.34 12.9 3 18 C2.01 18 1.02 18 0 18 C0 12.06 0 6.12 0 0 Z " fill="#0D0D0D" transform="translate(239,203)"/>
<path d="M0 0 C0.625 1.875 0.625 1.875 1 4 C0.34 4.66 -0.32 5.32 -1 6 C-3.72869407 5.96712417 -6.2966618 5.43602229 -9 5 C-8.67 3.35 -8.34 1.7 -8 0 C-4.94736336 -0.98120464 -3.05263664 -0.98120464 0 0 Z " fill="#6E6E6E" transform="translate(356,47)"/>
<path d="M0 0 C1.8871875 0.061875 1.8871875 0.061875 3.8125 0.125 C3.8125 1.115 3.8125 2.105 3.8125 3.125 C1.5025 2.795 -0.8075 2.465 -3.1875 2.125 C-3.1875 4.105 -3.1875 6.085 -3.1875 8.125 C-4.1775 8.125 -5.1675 8.125 -6.1875 8.125 C-7.1875 7.125 -7.1875 7.125 -7.4375 4.6875 C-7.355 3.841875 -7.2725 2.99625 -7.1875 2.125 C-4.09861478 0.06574319 -3.47814073 -0.1140374 0 0 Z " fill="#2E2E2E" transform="translate(346.1875,202.875)"/>
<path d="M0 0 C3.375 -0.125 3.375 -0.125 7 0 C7.66 0.66 8.32 1.32 9 2 C8.625 4.125 8.625 4.125 8 6 C7.34 5.67 6.68 5.34 6 5 C6 4.01 6 3.02 6 2 C5.34 3.32 4.68 4.64 4 6 C2.35 5.67 0.7 5.34 -1 5 C-0.67 3.35 -0.34 1.7 0 0 Z " fill="#8A8A8A" transform="translate(348,39)"/>
<path d="M0 0 C1.74271938 2.297221 3.39911152 4.59866729 5 7 C8.58357241 7.25015873 8.58357241 7.25015873 12 7 C12 7.99 12 8.98 12 10 C3.94132653 10.61989796 3.94132653 10.61989796 0.4375 8.3125 C-1.24510746 5.60569669 -1.42324698 4.13202763 -1 1 C-0.67 0.67 -0.34 0.34 0 0 Z " fill="#101010" transform="translate(201,211)"/>
<path d="M0 0 C0.99 0 1.98 0 3 0 C3 4.62 3 9.24 3 14 C2.01 14 1.02 14 0 14 C0 9.38 0 4.76 0 0 Z " fill="#141414" transform="translate(442,203)"/>
<path d="M0 0 C0.99 0.33 1.98 0.66 3 1 C3.47183746 5.05780213 3.33329645 6.56195324 0.8125 9.875 C-2 12 -2 12 -4.8125 12.3125 C-5.534375 12.209375 -6.25625 12.10625 -7 12 C-6.21625 11.505 -5.4325 11.01 -4.625 10.5 C-1.09968551 7.14255763 -0.86663179 4.72708251 0 0 Z " fill="#131313" transform="translate(162,209)"/>
<path d="M0 0 C0.66 0 1.32 0 2 0 C2 4.62 2 9.24 2 14 C1.01 14 0.02 14 -1 14 C-1.02685938 11.85423363 -1.04633088 9.70837355 -1.0625 7.5625 C-1.07410156 6.36753906 -1.08570313 5.17257813 -1.09765625 3.94140625 C-1 1 -1 1 0 0 Z " fill="#202020" transform="translate(314,207)"/>
<path d="M0 0 C0 0.66 0 1.32 0 2 C-1.0725 2.103125 -2.145 2.20625 -3.25 2.3125 C-6.89138965 2.9800881 -8.30664742 3.61741887 -11 6 C-11.33 6 -11.66 6 -12 6 C-12.33 7.98 -12.66 9.96 -13 12 C-13.33 12 -13.66 12 -14 12 C-14.41271158 7.79034186 -14.42484735 5.64412341 -12.0625 2.0625 C-7.95351764 -0.70477383 -4.80815498 -0.47138774 0 0 Z " fill="#1B1B1B" transform="translate(296,203)"/>
<path d="M0 0 C2.00720923 0.28674418 4.0085944 0.61866701 6 1 C6.33 2.32 6.66 3.64 7 5 C3.7 5 0.4 5 -3 5 C-1 1 -1 1 0 0 Z " fill="#DDDDDD" transform="translate(326,205)"/>
<path d="M0 0 C2.5625 0.1875 2.5625 0.1875 4.5625 2.1875 C4.5625 3.1775 4.5625 4.1675 4.5625 5.1875 C1.5925 5.1875 -1.3775 5.1875 -4.4375 5.1875 C-3.20220588 0.24632353 -3.20220588 0.24632353 0 0 Z " fill="#DCDCDC" transform="translate(188.4375,204.8125)"/>
<path d="M0 0 C5.4 -0.36 5.4 -0.36 7.875 1.125 C9.4682099 3.78034983 9.20214032 5.96789518 9 9 C5.37 9 1.74 9 -2 9 C-2 8.67 -2 8.34 -2 8 C0.97 8 3.94 8 7 8 C6.67 6.35 6.34 4.7 6 3 C4.02 2.34 2.04 1.68 0 1 C0 0.67 0 0.34 0 0 Z " fill="#0E0E0E" transform="translate(326,203)"/>
<path d="M0 0 C0.495 0.804375 0.99 1.60875 1.5 2.4375 C4.95695939 5.98088338 7.14788209 5.7573941 12 6 C12 6.66 12 7.32 12 8 C10.39620659 8.05416188 8.79188594 8.09286638 7.1875 8.125 C6.29417969 8.14820313 5.40085938 8.17140625 4.48046875 8.1953125 C2 8 2 8 -1 6 C-0.67 4.02 -0.34 2.04 0 0 Z " fill="#1C1C1C" transform="translate(183,213)"/>
<path d="M0 0 C2.52896798 2.24797154 3.01082291 3.04040555 3.9375 6.5 C5.05567287 10.183393 5.73494642 11.14980297 9 13 C7.35 13.33 5.7 13.66 4 14 C1.64199496 11.71568262 0.11279103 9.9918976 -0.265625 6.6640625 C-0.251535 4.43079795 -0.17460201 2.22617559 0 0 Z " fill="#1C1C1C" transform="translate(148,207)"/>
<path d="M0 0 C0.33 1.32 0.66 2.64 1 4 C-1.97 4 -4.94 4 -8 4 C-7.67 2.68 -7.34 1.36 -7 0 C-4.3333581 -1.33332095 -2.83319697 -0.67102033 0 0 Z " fill="#EAEAEA" transform="translate(98,206)"/>
<path d="M0 0 C0.495 0.804375 0.99 1.60875 1.5 2.4375 C4.95695939 5.98088338 7.14788209 5.7573941 12 6 C12 6.66 12 7.32 12 8 C10.39667209 8.08121924 8.79215974 8.13929134 7.1875 8.1875 C6.29417969 8.22230469 5.40085937 8.25710937 4.48046875 8.29296875 C2 8 2 8 0.15625 6.65625 C-1 5 -1 5 -0.6875 2.3125 C-0.460625 1.549375 -0.23375 0.78625 0 0 Z " fill="#151515" transform="translate(322,213)"/>
<path d="M0 0 C3.3 0 6.6 0 10 0 C10 0.99 10 1.98 10 3 C8.02 3 6.04 3 4 3 C4 3.66 4 4.32 4 5 C3.01 5 2.02 5 1 5 C0.67 3.35 0.34 1.7 0 0 Z " fill="#656565" transform="translate(347,55)"/>
<path d="M0 0 C0.99 0.33 1.98 0.66 3 1 C2.67 1.99 2.34 2.98 2 4 C2 3.34 2 2.68 2 2 C1.01 2.66 0.02 3.32 -1 4 C-4.1875 4.125 -4.1875 4.125 -7 4 C-7.66 2.68 -8.32 1.36 -9 0 C-5.90998791 -1.54500605 -3.32822635 -0.58389936 0 0 Z " fill="#282828" transform="translate(452,217)"/>
<path d="M0 0 C0.495 0.309375 0.99 0.61875 1.5 0.9375 C4.97986781 2.41644382 8.24028509 2.62402851 12 3 C12 3.66 12 4.32 12 5 C10.39620659 5.05416188 8.79188594 5.09286638 7.1875 5.125 C6.29417969 5.14820313 5.40085937 5.17140625 4.48046875 5.1953125 C2 5 2 5 -1 3 C-0.67 2.01 -0.34 1.02 0 0 Z " fill="#1D1D1D" transform="translate(89,216)"/>
<path d="M0 0 C0.99 0 1.98 0 3 0 C3 1.32 3 2.64 3 4 C3.66 4 4.32 4 5 4 C5.33 2.68 5.66 1.36 6 0 C6.625 1.875 6.625 1.875 7 4 C6.34 4.66 5.68 5.32 5 6 C2.375 5.625 2.375 5.625 0 5 C-0.5625 3.0625 -0.5625 3.0625 -1 1 C-0.67 0.67 -0.34 0.34 0 0 Z " fill="#9E9E9E" transform="translate(350,72)"/>
<path d="M0 0 C0.33 0 0.66 0 1 0 C1.02578125 0.77085937 1.0515625 1.54171875 1.078125 2.3359375 C1.13484375 3.33882812 1.1915625 4.34171875 1.25 5.375 C1.29640625 6.37273437 1.3428125 7.37046875 1.390625 8.3984375 C1.72160885 11.1526477 1.72160885 11.1526477 4.046875 12.3515625 C4.69140625 12.56554687 5.3359375 12.77953125 6 13 C6 13.66 6 14.32 6 15 C4.02 15 2.04 15 0 15 C-1.09651823 11.58860997 -0.94215473 8.79344419 -0.5625 5.25 C-0.46066406 4.26515625 -0.35882813 3.2803125 -0.25390625 2.265625 C-0.17011719 1.51796875 -0.08632813 0.7703125 0 0 Z " fill="#161616" transform="translate(432,206)"/>
<path d="M0 0 C1.8871875 0.061875 1.8871875 0.061875 3.8125 0.125 C3.8125 1.115 3.8125 2.105 3.8125 3.125 C2.86375 3.063125 1.915 3.00125 0.9375 2.9375 C-0.609375 3.0303125 -0.609375 3.0303125 -2.1875 3.125 C-3.1775 4.61 -3.1775 4.61 -4.1875 6.125 C-4.1875 5.135 -4.1875 4.145 -4.1875 3.125 C-4.8475 3.125 -5.5075 3.125 -6.1875 3.125 C-6.5175 4.445 -6.8475 5.765 -7.1875 7.125 C-7.375 4.75 -7.375 4.75 -7.1875 2.125 C-4.09861478 0.06574319 -3.47814073 -0.1140374 0 0 Z " fill="#3A3A3A" transform="translate(399.1875,202.875)"/>
<path d="M0 0 C0.66 0 1.32 0 2 0 C2 0.99 2 1.98 2 3 C3.98 3.66 5.96 4.32 8 5 C7.67 5.99 7.34 6.98 7 8 C1.125 6.125 1.125 6.125 0 5 C-0.04063832 3.33382885 -0.042721 1.66611905 0 0 Z " fill="#1A1A1A" transform="translate(393,206)"/>
<path d="M0 0 C0.33 0 0.66 0 1 0 C1.02578125 0.77085937 1.0515625 1.54171875 1.078125 2.3359375 C1.13484375 3.33882812 1.1915625 4.34171875 1.25 5.375 C1.29640625 6.37273437 1.3428125 7.37046875 1.390625 8.3984375 C1.72160885 11.1526477 1.72160885 11.1526477 4.046875 12.3515625 C4.69140625 12.56554687 5.3359375 12.77953125 6 13 C6 13.66 6 14.32 6 15 C4.33388095 15.042721 2.66617115 15.04063832 1 15 C0 14 0 14 -0.09765625 10.83984375 C-0.08025391 8.90818359 -0.08025391 8.90818359 -0.0625 6.9375 C-0.05347656 5.64714844 -0.04445313 4.35679687 -0.03515625 3.02734375 C-0.02355469 2.02832031 -0.01195312 1.02929688 0 0 Z " fill="#060606" transform="translate(410,206)"/>
<path d="M0 0 C1.32 0 2.64 0 4 0 C2.60667426 3.36720387 1.0210714 4.9859524 -2 7 C-2.66 6.34 -3.32 5.68 -4 5 C-2.25 2.5 -2.25 2.5 0 0 Z " fill="#2B2B2B" transform="translate(116,203)"/>
<path d="M0 0 C1.32 0 2.64 0 4 0 C4.33 1.65 4.66 3.3 5 5 C3.02 5 1.04 5 -1 5 C-0.67 3.35 -0.34 1.7 0 0 Z " fill="#969696" transform="translate(348,47)"/>
<path d="M0 0 C1.98 0.66 3.96 1.32 6 2 C6 3.65 6 5.3 6 7 C3.69 5.35 1.38 3.7 -1 2 C-0.67 1.34 -0.34 0.68 0 0 Z " fill="#131313" transform="translate(343,210)"/>
<path d="M0 0 C2.33333333 0 4.66666667 0 7 0 C7 0.99 7 1.98 7 3 C4.69 3.33 2.38 3.66 0 4 C0 2.68 0 1.36 0 0 Z " fill="#2E2E2E" transform="translate(139,203)"/>
<path d="M0 0 C0.99 0 1.98 0 3 0 C3 1.98 3 3.96 3 6 C1.35 6 -0.3 6 -2 6 C-2.33 5.34 -2.66 4.68 -3 4 C-2.01 4 -1.02 4 0 4 C0 2.68 0 1.36 0 0 Z " fill="#202020" transform="translate(352,33)"/>
<path d="M0 0 C0.66 0 1.32 0 2 0 C2 1.32 2 2.64 2 4 C-1.96 4 -5.92 4 -10 4 C-10 3.67 -10 3.34 -10 3 C-9.36191406 2.95101562 -8.72382813 2.90203125 -8.06640625 2.8515625 C-7.24011719 2.77679688 -6.41382813 2.70203125 -5.5625 2.625 C-4.73878906 2.55539063 -3.91507813 2.48578125 -3.06640625 2.4140625 C-2.38449219 2.27742187 -1.70257813 2.14078125 -1 2 C-0.67 1.34 -0.34 0.68 0 0 Z " fill="#050505" transform="translate(194,208)"/>
<path d="M0 0 C0.33 0.99 0.66 1.98 1 3 C3.00016466 4.20882096 3.00016466 4.20882096 5 5 C3.35 5.33 1.7 5.66 0 6 C-0.38218767 4.34385343 -0.71395102 2.67542976 -1 1 C-0.67 0.67 -0.34 0.34 0 0 Z " fill="#181818" transform="translate(269,206)"/>
<path d="M0 0 C3.625 -0.1875 3.625 -0.1875 7 0 C6.67 0.99 6.34 1.98 6 3 C3.36 3 0.72 3 -2 3 C-1.34 2.01 -0.68 1.02 0 0 Z " fill="#0E0E0E" transform="translate(206,203)"/>
<path d="M0 0 C1.9375 0.75 1.9375 0.75 4 2 C4.75 4.125 4.75 4.125 5 6 C3.68 5.67 2.36 5.34 1 5 C0.67 3.35 0.34 1.7 0 0 Z " fill="#1A1A1A" transform="translate(160,204)"/>
<path d="M0 0 C0.99 0.33 1.98 0.66 3 1 C3 2.98 3 4.96 3 7 C2.01 7 1.02 7 0 7 C0 4.69 0 2.38 0 0 Z " fill="#0C0C0C" transform="translate(162,209)"/>
<path d="M0 0 C2.625 -0.1875 2.625 -0.1875 5 0 C5 0.99 5 1.98 5 3 C2.69 3 0.38 3 -2 3 C-1.34 2.01 -0.68 1.02 0 0 Z " fill="#FEFEFE" transform="translate(187,206)"/>
<path d="M0 0 C1.9375 0.8125 1.9375 0.8125 4 2 C4.33 2.99 4.66 3.98 5 5 C4.34 5 3.68 5 3 5 C2.67 5.66 2.34 6.32 2 7 C0.5393715 4.35261084 0 3.10551666 0 0 Z " fill="#242424" transform="translate(191,203)"/>
<path d="M0 0 C0.99 0.33 1.98 0.66 3 1 C3 1.99 3 2.98 3 4 C1.02 4 -0.96 4 -3 4 C-2.01 2.68 -1.02 1.36 0 0 Z " fill="#FAFAFA" transform="translate(328,205)"/>
</svg>
